<?xml version="1.0" encoding="UTF-8"?><svg id="Layer_1" xmlns="http://www.w3.org/2000/svg" viewBox="0 0 221.52 151.03"><defs><style>.cls-1{fill:#fff;}</style></defs><path class="cls-1" d="M87.55,17.46c-.23.5-4.38-1.82-11.54-3.41-5.36-1.19-18.67-4.14-31.6,1.7-10.75,4.85-16.28,13.54-17.98,16.27-13.3,21.48-2.99,48.61-1.7,51.84,18.64,47.02,89.46,60.69,87.42,66.3-.13.37-.96,1.76-11.92,0-42.77-6.87-70.06-34.55-74.55-39.24-10.57-11.02-17.28-18.02-21.57-30.27-1.41-4.03-12.75-38.22,9.65-61.49C25.55,6.91,43.35,1.15,59.93,3.83c16.13,2.61,28.04,12.74,27.63,13.62h0Z"/><path class="cls-1" d="M165.13,132.69c-1.47,2.38-3.64,6.11-2.84,6.81.99.87,6.12-3.31,11.16-7.76,20.82-18.38,31.23-27.56,38.79-42.76,4.69-9.43,10.4-20.92,9.08-36.14-2.06-23.67-19.15-38.03-22.71-40.87-4.63-3.7-12.95-10.36-25.54-11.73-20.85-2.28-38.97,12.19-38.22,14,.27.64,7.03-3.71,18.73-4.35,11.4-.62,19.96,2.68,21.76,3.41,1.87.75,14.06,5.82,22.33,17.98,9.04,13.29,11.44,32.19,5.68,47.68-6.8,18.29-25.28,32.71-38.22,53.74h0Z"/><ellipse class="cls-1" cx="75.47" cy="48.52" rx="14.22" ry="21.29" transform="translate(-5.02 8.88) rotate(-6.52)"/><ellipse class="cls-1" cx="79.7" cy="57" rx="2.18" ry=".38"/><ellipse class="cls-1" cx="112.18" cy="27.31" rx="21.29" ry="14.22" transform="translate(78.41 137.71) rotate(-86.67)"/><ellipse class="cls-1" cx="146.79" cy="40.39" rx="21.29" ry="14.22" transform="translate(35.51 144.29) rotate(-58.42)"/><ellipse class="cls-1" cx="157.57" cy="80.42" rx="21.29" ry="14.22" transform="translate(-6.6 146.32) rotate(-48.91)"/><path class="cls-1" d="M69.77,106.76c5.34,2.35,10.31,2.91,14.95,3.12,10.96.49,10.78-1.37,14.76,0,2.9,1,6.21,4.31,12.72,10.89,6.88,6.96,7.06,7.89,9.42,8.7,6.49,2.25,15.57-1.16,18.33-7.19,1.08-2.35.93-4.54.78-6.24-.95-10.85-1.53-17.5-5.89-26.3-4.45-9-8.63-17.42-17.95-21.38-12.42-5.27-25.1,1.15-31.41,4.35-1.27.64-12.92,6.73-19.3,18.92-3.66,6.99-2.48,10.05-1.89,11.16.39.73,1.33,2.14,5.49,3.97h0Z"/></svg>